<svg width="230" height="300" viewBox="0 0 230 300" fill="none" xmlns="http://www.w3.org/2000/svg">
<path fill-rule="evenodd" clip-rule="evenodd" d="M8 2H225C226.657 2 228 3.34314 228 5V295C228 296.657 226.657 298 225 298H8V2ZM8 0H225C227.761 0 230 2.23857 230 5V295C230 297.761 227.761 300 225 300H8H5C2.23859 300 0 297.761 0 295V5C0 2.23857 2.23859 0 5 0H8Z" fill="black"/>
<path fill-rule="evenodd" clip-rule="evenodd" d="M5 300H225C227.761 300 230 297.761 230 295V5C230 2.23857 227.761 0 225 0H5C2.23859 0 0 2.23857 0 5V295C0 297.761 2.23859 300 5 300ZM5 3C3.89543 3 3 3.89543 3 5V295C3 296.105 3.89544 297 5 297V3ZM8 2H225C226.657 2 228 3.34314 228 5V295C228 296.657 226.657 298 225 298H8V2Z" fill="black"/>
<path fill-rule="evenodd" clip-rule="evenodd" d="M64.72 173H165.793V176H64.72V173Z" fill="black"/>
<path fill-rule="evenodd" clip-rule="evenodd" d="M64.72 203H165.793V206H64.72V203Z" fill="black"/>
<path fill-rule="evenodd" clip-rule="evenodd" d="M64.72 231.913H165.793V234.913H64.72V231.913Z" fill="black"/>
<path d="M165 38V118H141.061V90.2424L141.415 63.3333H141.061L125.967 118H104.033L89.1745 63.3333H88.7028L89.0566 90.2424V118H65V38H103.443L112.406 73.5152L115.825 88.4242H116.061L119.481 73.5152L128.443 38H165Z" fill="black"/>
</svg>
