<svg width="230" height="300" viewBox="0 0 230 300" fill="none" xmlns="http://www.w3.org/2000/svg">
<path fill-rule="evenodd" clip-rule="evenodd" d="M225 2C226.657 2 228 3.34314 228 5V295C228 296.657 226.657 298 225 298H13V2H225ZM13 0H225C227.761 0 230 2.23857 230 5V295C230 297.761 227.761 300 225 300H13H8H6H5C2.23859 300 0 297.761 0 295V5C0 2.23857 2.23859 0 5 0H6H8H13ZM165.793 173H64.72V176H165.793V173ZM64.72 203H165.793V206H64.72V203ZM165.793 231.913H64.72V234.913H165.793V231.913ZM165 38V118H141.061V90.2424L141.415 63.3333H141.061L125.967 118H104.033L89.1745 63.3333H88.7028L89.0566 90.2424V118H65V38H103.443L112.406 73.5152L115.825 88.4242H116.061L119.481 73.5152L128.443 38H165Z" fill="black"/>
</svg>
